<mxfile host="app.diagrams.net" agent="Mozilla/5.0 (X11; Linux x86_64) AppleWebKit/537.36 (KHTML, like Gecko) Chrome/136.0.0.0 Safari/537.36" version="27.0.9">
  <diagram name="Page-1" id="2YBvvXClWsGukQMizWep">
    <mxGraphModel dx="1426" dy="797" grid="1" gridSize="10" guides="1" tooltips="1" connect="1" arrows="1" fold="1" page="1" pageScale="1" pageWidth="850" pageHeight="1100" math="0" shadow="0">
      <root>
        <mxCell id="0" />
        <mxCell id="1" parent="0" />
        <mxCell id="QFUV7agN3VdFmTPPaPkq-33" value="Citoyens" style="shape=umlLifeline;perimeter=lifelinePerimeter;whiteSpace=wrap;html=1;container=0;dropTarget=0;collapsible=0;recursiveResize=0;outlineConnect=0;portConstraint=eastwest;newEdgeStyle={&quot;edgeStyle&quot;:&quot;elbowEdgeStyle&quot;,&quot;elbow&quot;:&quot;vertical&quot;,&quot;curved&quot;:0,&quot;rounded&quot;:0};" vertex="1" parent="1">
          <mxGeometry x="530" y="180" width="100" height="540" as="geometry" />
        </mxCell>
        <mxCell id="QFUV7agN3VdFmTPPaPkq-34" value="" style="html=1;points=[];perimeter=orthogonalPerimeter;outlineConnect=0;targetShapes=umlLifeline;portConstraint=eastwest;newEdgeStyle={&quot;edgeStyle&quot;:&quot;elbowEdgeStyle&quot;,&quot;elbow&quot;:&quot;vertical&quot;,&quot;curved&quot;:0,&quot;rounded&quot;:0};" vertex="1" parent="QFUV7agN3VdFmTPPaPkq-33">
          <mxGeometry x="45" y="70" width="10" height="450" as="geometry" />
        </mxCell>
        <mxCell id="QFUV7agN3VdFmTPPaPkq-35" value="" style="html=1;points=[];perimeter=orthogonalPerimeter;outlineConnect=0;targetShapes=umlLifeline;portConstraint=eastwest;newEdgeStyle={&quot;edgeStyle&quot;:&quot;elbowEdgeStyle&quot;,&quot;elbow&quot;:&quot;vertical&quot;,&quot;curved&quot;:0,&quot;rounded&quot;:0};" vertex="1" parent="QFUV7agN3VdFmTPPaPkq-33">
          <mxGeometry x="50" y="120" width="10" height="80" as="geometry" />
        </mxCell>
        <mxCell id="QFUV7agN3VdFmTPPaPkq-36" value="App Mobile" style="shape=umlLifeline;perimeter=lifelinePerimeter;whiteSpace=wrap;html=1;container=0;dropTarget=0;collapsible=0;recursiveResize=0;outlineConnect=0;portConstraint=eastwest;newEdgeStyle={&quot;edgeStyle&quot;:&quot;elbowEdgeStyle&quot;,&quot;elbow&quot;:&quot;vertical&quot;,&quot;curved&quot;:0,&quot;rounded&quot;:0};" vertex="1" parent="1">
          <mxGeometry x="750" y="180" width="100" height="540" as="geometry" />
        </mxCell>
        <mxCell id="QFUV7agN3VdFmTPPaPkq-37" value="" style="html=1;points=[];perimeter=orthogonalPerimeter;outlineConnect=0;targetShapes=umlLifeline;portConstraint=eastwest;newEdgeStyle={&quot;edgeStyle&quot;:&quot;elbowEdgeStyle&quot;,&quot;elbow&quot;:&quot;vertical&quot;,&quot;curved&quot;:0,&quot;rounded&quot;:0};" vertex="1" parent="QFUV7agN3VdFmTPPaPkq-36">
          <mxGeometry x="45" y="80" width="10" height="440" as="geometry" />
        </mxCell>
        <mxCell id="QFUV7agN3VdFmTPPaPkq-38" value="" style="html=1;points=[[0,0,0,0,5],[0,1,0,0,-5],[1,0,0,0,5],[1,1,0,0,-5]];perimeter=orthogonalPerimeter;outlineConnect=0;targetShapes=umlLifeline;portConstraint=eastwest;newEdgeStyle={&quot;curved&quot;:0,&quot;rounded&quot;:0};" vertex="1" parent="QFUV7agN3VdFmTPPaPkq-36">
          <mxGeometry x="40" y="220" width="10" height="40" as="geometry" />
        </mxCell>
        <mxCell id="QFUV7agN3VdFmTPPaPkq-39" value="verifie les informations du signalement" style="html=1;align=left;spacingLeft=2;endArrow=block;rounded=0;edgeStyle=orthogonalEdgeStyle;curved=0;rounded=0;" edge="1" parent="QFUV7agN3VdFmTPPaPkq-36" target="QFUV7agN3VdFmTPPaPkq-38">
          <mxGeometry relative="1" as="geometry">
            <mxPoint x="45" y="200" as="sourcePoint" />
            <Array as="points">
              <mxPoint x="75" y="230" />
            </Array>
          </mxGeometry>
        </mxCell>
        <mxCell id="QFUV7agN3VdFmTPPaPkq-40" value="Demande de suppression signalement" style="html=1;verticalAlign=bottom;endArrow=block;edgeStyle=elbowEdgeStyle;elbow=vertical;curved=0;rounded=0;" edge="1" parent="1" source="QFUV7agN3VdFmTPPaPkq-34" target="QFUV7agN3VdFmTPPaPkq-37">
          <mxGeometry relative="1" as="geometry">
            <mxPoint x="685" y="270" as="sourcePoint" />
            <Array as="points">
              <mxPoint x="670" y="260" />
            </Array>
          </mxGeometry>
        </mxCell>
        <mxCell id="QFUV7agN3VdFmTPPaPkq-41" value="Renvoie un message de confirmation" style="html=1;verticalAlign=bottom;endArrow=block;edgeStyle=elbowEdgeStyle;elbow=horizontal;curved=0;rounded=0;" edge="1" parent="1" source="QFUV7agN3VdFmTPPaPkq-37" target="QFUV7agN3VdFmTPPaPkq-35">
          <mxGeometry relative="1" as="geometry">
            <mxPoint x="665" y="300" as="sourcePoint" />
            <Array as="points">
              <mxPoint x="680" y="300" />
            </Array>
          </mxGeometry>
        </mxCell>
        <mxCell id="QFUV7agN3VdFmTPPaPkq-42" value="System" style="shape=umlLifeline;perimeter=lifelinePerimeter;whiteSpace=wrap;html=1;container=0;dropTarget=0;collapsible=0;recursiveResize=0;outlineConnect=0;portConstraint=eastwest;newEdgeStyle={&quot;edgeStyle&quot;:&quot;elbowEdgeStyle&quot;,&quot;elbow&quot;:&quot;vertical&quot;,&quot;curved&quot;:0,&quot;rounded&quot;:0};" vertex="1" parent="1">
          <mxGeometry x="960" y="180" width="100" height="540" as="geometry" />
        </mxCell>
        <mxCell id="QFUV7agN3VdFmTPPaPkq-43" value="" style="html=1;points=[];perimeter=orthogonalPerimeter;outlineConnect=0;targetShapes=umlLifeline;portConstraint=eastwest;newEdgeStyle={&quot;edgeStyle&quot;:&quot;elbowEdgeStyle&quot;,&quot;elbow&quot;:&quot;vertical&quot;,&quot;curved&quot;:0,&quot;rounded&quot;:0};" vertex="1" parent="QFUV7agN3VdFmTPPaPkq-42">
          <mxGeometry x="45" y="70" width="10" height="450" as="geometry" />
        </mxCell>
        <mxCell id="QFUV7agN3VdFmTPPaPkq-44" value="" style="html=1;points=[[0,0,0,0,5],[0,1,0,0,-5],[1,0,0,0,5],[1,1,0,0,-5]];perimeter=orthogonalPerimeter;outlineConnect=0;targetShapes=umlLifeline;portConstraint=eastwest;newEdgeStyle={&quot;curved&quot;:0,&quot;rounded&quot;:0};" vertex="1" parent="QFUV7agN3VdFmTPPaPkq-42">
          <mxGeometry x="40" y="260" width="10" height="90" as="geometry" />
        </mxCell>
        <mxCell id="QFUV7agN3VdFmTPPaPkq-45" value="BD" style="shape=umlLifeline;perimeter=lifelinePerimeter;whiteSpace=wrap;html=1;container=0;dropTarget=0;collapsible=0;recursiveResize=0;outlineConnect=0;portConstraint=eastwest;newEdgeStyle={&quot;edgeStyle&quot;:&quot;elbowEdgeStyle&quot;,&quot;elbow&quot;:&quot;vertical&quot;,&quot;curved&quot;:0,&quot;rounded&quot;:0};" vertex="1" parent="1">
          <mxGeometry x="1190" y="180" width="100" height="540" as="geometry" />
        </mxCell>
        <mxCell id="QFUV7agN3VdFmTPPaPkq-46" value="" style="html=1;points=[];perimeter=orthogonalPerimeter;outlineConnect=0;targetShapes=umlLifeline;portConstraint=eastwest;newEdgeStyle={&quot;edgeStyle&quot;:&quot;elbowEdgeStyle&quot;,&quot;elbow&quot;:&quot;vertical&quot;,&quot;curved&quot;:0,&quot;rounded&quot;:0};" vertex="1" parent="QFUV7agN3VdFmTPPaPkq-45">
          <mxGeometry x="45" y="70" width="10" height="450" as="geometry" />
        </mxCell>
        <mxCell id="QFUV7agN3VdFmTPPaPkq-47" value="" style="html=1;points=[];perimeter=orthogonalPerimeter;outlineConnect=0;targetShapes=umlLifeline;portConstraint=eastwest;newEdgeStyle={&quot;edgeStyle&quot;:&quot;elbowEdgeStyle&quot;,&quot;elbow&quot;:&quot;vertical&quot;,&quot;curved&quot;:0,&quot;rounded&quot;:0};" vertex="1" parent="QFUV7agN3VdFmTPPaPkq-45">
          <mxGeometry x="40" y="260" width="10" height="80" as="geometry" />
        </mxCell>
        <mxCell id="QFUV7agN3VdFmTPPaPkq-48" value="Failed" style="shape=umlFrame;whiteSpace=wrap;html=1;pointerEvents=0;" vertex="1" parent="1">
          <mxGeometry x="520" y="610" width="760" height="70" as="geometry" />
        </mxCell>
        <mxCell id="QFUV7agN3VdFmTPPaPkq-49" value="Valide" style="html=1;verticalAlign=bottom;endArrow=open;dashed=1;endSize=8;curved=0;rounded=0;" edge="1" parent="1" target="QFUV7agN3VdFmTPPaPkq-36">
          <mxGeometry relative="1" as="geometry">
            <mxPoint x="590" y="370" as="sourcePoint" />
            <mxPoint x="699.5" y="370" as="targetPoint" />
          </mxGeometry>
        </mxCell>
        <mxCell id="QFUV7agN3VdFmTPPaPkq-50" value="Renvoie une reponse" style="html=1;verticalAlign=bottom;endArrow=open;dashed=1;endSize=8;curved=0;rounded=0;" edge="1" parent="1" target="QFUV7agN3VdFmTPPaPkq-42">
          <mxGeometry relative="1" as="geometry">
            <mxPoint x="1230" y="500" as="sourcePoint" />
            <mxPoint x="1150" y="500" as="targetPoint" />
          </mxGeometry>
        </mxCell>
        <mxCell id="QFUV7agN3VdFmTPPaPkq-51" value="" style="endArrow=open;endFill=1;endSize=12;html=1;rounded=0;" edge="1" parent="1">
          <mxGeometry width="160" relative="1" as="geometry">
            <mxPoint x="800" y="439.99999999999994" as="sourcePoint" />
            <mxPoint x="1000" y="439.99999999999994" as="targetPoint" />
          </mxGeometry>
        </mxCell>
        <mxCell id="QFUV7agN3VdFmTPPaPkq-52" value="Envoie la demande de suppression" style="edgeLabel;html=1;align=center;verticalAlign=middle;resizable=0;points=[];" vertex="1" connectable="0" parent="QFUV7agN3VdFmTPPaPkq-51">
          <mxGeometry x="0.045" y="-1" relative="1" as="geometry">
            <mxPoint x="-4" y="-11" as="offset" />
          </mxGeometry>
        </mxCell>
        <mxCell id="QFUV7agN3VdFmTPPaPkq-53" value="" style="endArrow=open;endFill=1;endSize=12;html=1;rounded=0;" edge="1" parent="1" target="QFUV7agN3VdFmTPPaPkq-45">
          <mxGeometry width="160" relative="1" as="geometry">
            <mxPoint x="1010" y="450" as="sourcePoint" />
            <mxPoint x="1170" y="450" as="targetPoint" />
          </mxGeometry>
        </mxCell>
        <mxCell id="QFUV7agN3VdFmTPPaPkq-54" value="Verifie si les informations sont corrects pour pouvoir supprimer" style="edgeLabel;html=1;align=center;verticalAlign=middle;resizable=0;points=[];" vertex="1" connectable="0" parent="QFUV7agN3VdFmTPPaPkq-53">
          <mxGeometry x="-0.0821" y="-3" relative="1" as="geometry">
            <mxPoint x="5" y="-13" as="offset" />
          </mxGeometry>
        </mxCell>
        <mxCell id="QFUV7agN3VdFmTPPaPkq-55" value="Renvoie la reponse" style="html=1;verticalAlign=bottom;endArrow=open;dashed=1;endSize=8;curved=0;rounded=0;" edge="1" parent="1" target="QFUV7agN3VdFmTPPaPkq-36">
          <mxGeometry relative="1" as="geometry">
            <mxPoint x="1000" y="510" as="sourcePoint" />
            <mxPoint x="920" y="510" as="targetPoint" />
          </mxGeometry>
        </mxCell>
        <mxCell id="QFUV7agN3VdFmTPPaPkq-56" value="Renvoie sur la page des signalements" style="html=1;verticalAlign=bottom;endArrow=open;dashed=1;endSize=8;curved=0;rounded=0;" edge="1" parent="1" source="QFUV7agN3VdFmTPPaPkq-37">
          <mxGeometry relative="1" as="geometry">
            <mxPoint x="660" y="560" as="sourcePoint" />
            <mxPoint x="580" y="560" as="targetPoint" />
          </mxGeometry>
        </mxCell>
        <mxCell id="QFUV7agN3VdFmTPPaPkq-57" value="Success" style="shape=umlFrame;whiteSpace=wrap;html=1;pointerEvents=0;" vertex="1" parent="1">
          <mxGeometry x="520" y="530" width="760" height="70" as="geometry" />
        </mxCell>
        <mxCell id="QFUV7agN3VdFmTPPaPkq-58" value="Renvoie un message d&#39;erreur" style="html=1;verticalAlign=bottom;endArrow=open;dashed=1;endSize=8;curved=0;rounded=0;" edge="1" parent="1">
          <mxGeometry relative="1" as="geometry">
            <mxPoint x="795" y="644.5799999999999" as="sourcePoint" />
            <mxPoint x="580" y="644.5799999999999" as="targetPoint" />
          </mxGeometry>
        </mxCell>
      </root>
    </mxGraphModel>
  </diagram>
</mxfile>
